<svg width="519" height="573" viewBox="0 0 519 573" fill="none" xmlns="http://www.w3.org/2000/svg">
<path d="M499.909 14.1542C497.602 9.15664 499.847 3.22201 504.834 0.910617C509.821 -1.40078 515.743 0.848124 518.05 5.84573C520.356 10.8433 518.112 16.778 513.125 19.0894C508.138 21.4008 502.215 19.1518 499.909 14.1542ZM502.652 12.9048C504.273 16.4032 508.387 17.9649 511.94 16.3407C515.431 14.7165 516.99 10.5935 515.369 7.03267C513.748 3.47188 509.634 1.9726 506.08 3.59682C502.589 5.22104 501.031 9.40652 502.652 12.9048Z" fill="url(#paint0_linear)"/>
<path d="M274.908 567.154C272.602 562.157 274.846 556.222 279.833 553.911C284.82 551.599 290.743 553.848 293.049 558.846C295.356 563.843 293.111 569.778 288.124 572.089C283.137 574.401 277.215 572.152 274.908 567.154ZM277.651 565.905C279.272 569.403 283.386 570.965 286.94 569.341C290.431 567.716 291.989 563.593 290.368 560.033C288.748 556.472 284.633 554.973 281.08 556.597C277.589 558.221 276.03 562.407 277.651 565.905Z" fill="url(#paint1_linear)"/>
<path d="M13.6979 69.5326L13.6228 63.0238C13.6555 62.7749 13.8545 62.5478 14.1149 62.4976L20.6387 62.4266C20.8882 62.4594 21.0872 62.2324 21.1308 61.9005L21.1007 58.2673C21.1334 58.0183 20.9057 57.8196 20.5731 57.7759L14.0493 57.8469C13.7998 57.8141 13.5721 57.6154 13.5217 57.3556L13.4464 50.8467C13.4792 50.5978 13.2515 50.3991 12.9188 50.3554L9.2772 50.3832C9.0277 50.3504 8.82865 50.5774 8.78504 50.9093L8.86027 57.4181C8.82756 57.667 8.62851 57.8941 8.36811 57.9443L1.84431 58.0153C1.59481 57.9825 1.39577 58.2095 1.35215 58.5414L1.38225 62.1747C1.34953 62.4236 1.57723 62.6223 1.9099 62.666L8.4337 62.595C8.6832 62.6278 8.9109 62.8265 8.96136 63.0863L9.03654 69.5952C9.00383 69.8441 9.23153 70.0428 9.5642 70.0865L13.2058 70.0587C13.4662 70.0086 13.6652 69.7815 13.6979 69.5326Z" fill="#FDD08D"/>
<defs>
<linearGradient id="paint0_linear" x1="504.971" y1="0.866138" x2="513.071" y2="19.1436" gradientUnits="userSpaceOnUse">
<stop stop-color="#BFF0DD"/>
<stop offset="1" stop-color="#57D2A3"/>
</linearGradient>
<linearGradient id="paint1_linear" x1="279.97" y1="553.866" x2="288.07" y2="572.144" gradientUnits="userSpaceOnUse">
<stop stop-color="#BFF0DD"/>
<stop offset="1" stop-color="#57D2A3"/>
</linearGradient>
</defs>
</svg>
