<svg width="857" height="684" viewBox="0 0 857 684" fill="none" xmlns="http://www.w3.org/2000/svg">
<path d="M0.908712 439.154C-1.39785 434.157 0.846369 428.222 5.83354 425.911C10.8207 423.599 16.743 425.848 19.0495 430.846C21.3561 435.843 19.1119 441.778 14.1247 444.089C9.13754 446.401 3.21528 444.152 0.908712 439.154ZM3.65165 437.905C5.27248 441.403 9.3869 442.965 12.9403 441.341C16.4313 439.716 17.9898 435.593 16.3689 432.033C14.7481 428.472 10.6337 426.973 7.08033 428.597C3.58931 430.221 2.03082 434.407 3.65165 437.905Z" fill="url(#paint0_linear)"/>
<path d="M837.909 678.154C835.602 673.157 837.846 667.222 842.834 664.911C847.821 662.599 853.743 664.848 856.05 669.846C858.356 674.843 856.112 680.778 851.125 683.089C846.138 685.401 840.215 683.152 837.909 678.154ZM840.652 676.905C842.272 680.403 846.387 681.965 849.94 680.341C853.431 678.716 854.99 674.593 853.369 671.033C851.748 667.472 847.634 665.973 844.08 667.597C840.589 669.221 839.031 673.407 840.652 676.905Z" fill="url(#paint1_linear)"/>
<path d="M514.698 20.5326L514.623 14.0238C514.656 13.7749 514.855 13.5478 515.115 13.4976L521.639 13.4266C521.888 13.4594 522.087 13.2324 522.131 12.9005L522.101 9.26725C522.133 9.01835 521.906 8.81962 521.573 8.77589L515.049 8.8469C514.8 8.81411 514.572 8.61539 514.522 8.35555L514.446 1.84672C514.479 1.59781 514.252 1.39908 513.919 1.35536L510.277 1.38318C510.028 1.35038 509.829 1.57743 509.785 1.9093L509.86 8.41814C509.828 8.66704 509.629 8.89409 509.368 8.94426L502.844 9.01529C502.595 8.9825 502.396 9.20954 502.352 9.54141L502.382 13.1747C502.35 13.4236 502.577 13.6223 502.91 13.666L509.434 13.595C509.683 13.6278 509.911 13.8265 509.961 14.0863L510.037 20.5952C510.004 20.8441 510.232 21.0428 510.564 21.0865L514.206 21.0587C514.466 21.0086 514.665 20.7815 514.698 20.5326Z" fill="#FDD08D"/>
<defs>
<linearGradient id="paint0_linear" x1="5.97093" y1="425.866" x2="14.0704" y2="444.144" gradientUnits="userSpaceOnUse">
<stop stop-color="#BFF0DD"/>
<stop offset="1" stop-color="#57D2A3"/>
</linearGradient>
<linearGradient id="paint1_linear" x1="842.971" y1="664.866" x2="851.07" y2="683.144" gradientUnits="userSpaceOnUse">
<stop stop-color="#BFF0DD"/>
<stop offset="1" stop-color="#57D2A3"/>
</linearGradient>
</defs>
</svg>
