<svg width="892" height="545" viewBox="0 0 892 545" fill="none" xmlns="http://www.w3.org/2000/svg">
<path d="M837.749 14.1542C835.176 9.15663 837.679 3.22201 843.244 0.910617C848.808 -1.40078 855.415 0.848124 857.989 5.84573C860.562 10.8433 858.058 16.778 852.494 19.0894C846.93 21.4008 840.322 19.1518 837.749 14.1542ZM840.809 12.9048C842.618 16.4032 847.208 17.9649 851.173 16.3407C855.067 14.7165 856.806 10.5935 854.998 7.03267C853.19 3.47188 848.599 1.9726 844.635 3.59682C840.74 5.22104 839.001 9.40652 840.809 12.9048Z" fill="url(#paint0_linear)"/>
<path d="M201.014 539.154C198.44 534.157 200.944 528.222 206.508 525.911C212.073 523.599 218.68 525.848 221.254 530.846C223.827 535.843 221.323 541.778 215.759 544.089C210.195 546.401 203.587 544.152 201.014 539.154ZM204.074 537.905C205.882 541.403 210.473 542.965 214.437 541.341C218.332 539.716 220.071 535.593 218.263 532.033C216.454 528.472 211.864 526.973 207.9 528.597C204.005 530.221 202.266 534.407 204.074 537.905Z" fill="url(#paint1_linear)"/>
<path d="M15.2828 103.533L15.1989 97.0238C15.2354 96.7749 15.4575 96.5478 15.748 96.4976L23.0265 96.4266C23.3049 96.4594 23.527 96.2324 23.5756 95.9005L23.5421 92.2673C23.5786 92.0183 23.3245 91.8196 22.9534 91.7759L15.6748 91.8469C15.3964 91.8141 15.1424 91.6154 15.0861 91.3556L15.0022 84.8467C15.0387 84.5978 14.7847 84.3991 14.4135 84.3554L10.3506 84.3832C10.0722 84.3504 9.85015 84.5774 9.80149 84.9093L9.88543 91.4181C9.84893 91.667 9.62686 91.8941 9.33632 91.9443L2.05775 92.0153C1.77938 91.9825 1.55731 92.2095 1.50864 92.5414L1.54222 96.1747C1.50572 96.4236 1.75977 96.6223 2.13092 96.666L9.4095 96.595C9.68787 96.6278 9.94191 96.8265 9.99821 97.0863L10.0821 103.595C10.0456 103.844 10.2996 104.043 10.6708 104.087L14.7337 104.059C15.0242 104.009 15.2463 103.782 15.2828 103.533Z" fill="#FDD08D"/>
<defs>
<linearGradient id="paint0_linear" x1="843.397" y1="0.866138" x2="850.899" y2="19.7532" gradientUnits="userSpaceOnUse">
<stop stop-color="#BFF0DD"/>
<stop offset="1" stop-color="#57D2A3"/>
</linearGradient>
<linearGradient id="paint1_linear" x1="206.662" y1="525.866" x2="214.163" y2="544.753" gradientUnits="userSpaceOnUse">
<stop stop-color="#BFF0DD"/>
<stop offset="1" stop-color="#57D2A3"/>
</linearGradient>
</defs>
</svg>
